<svg width="24" height="24" viewBox="0 0 24 24" fill="#FFFFFF" xmlns="http://www.w3.org/2000/svg">
<path d="M11.8141 12.75V18.75C11.8141 18.8992 11.7548 19.0423 11.6493 19.1477C11.5439 19.2532 11.4008 19.3125 11.2516 19.3125C11.1024 19.3125 10.9593 19.2532 10.8538 19.1477C10.7484 19.0423 10.6891 18.8992 10.6891 18.75V14.1084L4.14909 20.6475C4.04246 20.7469 3.90143 20.801 3.7557 20.7984C3.60998 20.7958 3.47094 20.7368 3.36788 20.6337C3.26482 20.5307 3.20578 20.3916 3.20321 20.2459C3.20064 20.1002 3.25473 19.9591 3.35409 19.8525L9.89316 13.3125H5.25159C5.10241 13.3125 4.95934 13.2532 4.85385 13.1477C4.74836 13.0423 4.68909 12.8992 4.68909 12.75C4.68909 12.6008 4.74836 12.4577 4.85385 12.3523C4.95934 12.2468 5.10241 12.1875 5.25159 12.1875H11.2516C11.4008 12.1875 11.5439 12.2468 11.6493 12.3523C11.7548 12.4577 11.8141 12.6008 11.8141 12.75ZM19.5016 3.1875H7.50159C7.1535 3.1875 6.81966 3.32578 6.57352 3.57192C6.32737 3.81806 6.18909 4.1519 6.18909 4.5V9C6.18909 9.14918 6.24836 9.29226 6.35385 9.39775C6.45934 9.50324 6.60241 9.5625 6.75159 9.5625C6.90078 9.5625 7.04385 9.50324 7.14934 9.39775C7.25483 9.29226 7.31409 9.14918 7.31409 9V4.5C7.31409 4.45027 7.33385 4.40258 7.36901 4.36742C7.40417 4.33225 7.45187 4.3125 7.50159 4.3125H19.5016C19.5513 4.3125 19.599 4.33225 19.6342 4.36742C19.6693 4.40258 19.6891 4.45027 19.6891 4.5V16.5C19.6891 16.5497 19.6693 16.5974 19.6342 16.6326C19.599 16.6677 19.5513 16.6875 19.5016 16.6875H15.0016C14.8524 16.6875 14.7093 16.7468 14.6038 16.8523C14.4984 16.9577 14.4391 17.1008 14.4391 17.25C14.4391 17.3992 14.4984 17.5423 14.6038 17.6477C14.7093 17.7532 14.8524 17.8125 15.0016 17.8125H19.5016C19.8497 17.8125 20.1835 17.6742 20.4297 17.4281C20.6758 17.1819 20.8141 16.8481 20.8141 16.5V4.5C20.8141 4.1519 20.6758 3.81806 20.4297 3.57192C20.1835 3.32578 19.8497 3.1875 19.5016 3.1875Z" fill="white"/>
</svg>
