<svg width="24" height="24" viewBox="0 0 24 24" fill="#FFFFFF" xmlns="http://www.w3.org/2000/svg">
<path d="M19.5 3H4.5C4.10218 3 3.72064 3.15804 3.43934 3.43934C3.15804 3.72064 3 4.10218 3 4.5V19.5C3 19.8978 3.15804 20.2794 3.43934 20.5607C3.72064 20.842 4.10218 21 4.5 21H19.5C19.8978 21 20.2794 20.842 20.5607 20.5607C20.842 20.2794 21 19.8978 21 19.5V4.5C21 4.10218 20.842 3.72064 20.5607 3.43934C20.2794 3.15804 19.8978 3 19.5 3ZM13.5 15C13.5 15.1989 13.421 15.3897 13.2803 15.5303C13.1397 15.671 12.9489 15.75 12.75 15.75C12.5511 15.75 12.3603 15.671 12.2197 15.5303C12.079 15.3897 12 15.1989 12 15V12H6.75V15C6.75 15.1989 6.67098 15.3897 6.53033 15.5303C6.38968 15.671 6.19891 15.75 6 15.75C5.80109 15.75 5.61032 15.671 5.46967 15.5303C5.32902 15.3897 5.25 15.1989 5.25 15V7.5C5.25 7.30109 5.32902 7.11032 5.46967 6.96967C5.61032 6.82902 5.80109 6.75 6 6.75C6.19891 6.75 6.38968 6.82902 6.53033 6.96967C6.67098 7.11032 6.75 7.30109 6.75 7.5V10.5H12V7.5C12 7.30109 12.079 7.11032 12.2197 6.96967C12.3603 6.82902 12.5511 6.75 12.75 6.75C12.9489 6.75 13.1397 6.82902 13.2803 6.96967C13.421 7.11032 13.5 7.30109 13.5 7.5V15ZM18.75 16.5C18.75 16.6989 18.671 16.8897 18.5303 17.0303C18.3897 17.171 18.1989 17.25 18 17.25C17.8011 17.25 17.6103 17.171 17.4697 17.0303C17.329 16.8897 17.25 16.6989 17.25 16.5V10.4062L16.1663 11.1291C16.0843 11.1837 15.9923 11.2217 15.8956 11.2408C15.799 11.26 15.6995 11.2598 15.6028 11.2405C15.5062 11.2212 15.4143 11.183 15.3324 11.1282C15.2506 11.0734 15.1803 11.0029 15.1256 10.9209C15.071 10.8389 15.033 10.747 15.0139 10.6503C14.9947 10.5536 14.9948 10.4542 15.0142 10.3575C15.0335 10.2609 15.0717 10.169 15.1265 10.0871C15.1813 10.0053 15.2518 9.93498 15.3337 9.88031L17.5837 8.38031C17.6964 8.30515 17.8273 8.2619 17.9625 8.25513C18.0978 8.24836 18.2323 8.27834 18.3519 8.34188C18.4715 8.40542 18.5717 8.50016 18.6418 8.61603C18.7118 8.7319 18.7492 8.86458 18.75 9V16.5Z" fill="white"/>
</svg>
