<svg width="24" height="24" viewBox="0 0 24 24" fill="#FFFFFF" xmlns="http://www.w3.org/2000/svg">
<path d="M21.7492 5.625H19.968L21.797 3.79594C21.9017 3.69129 21.9847 3.56706 22.0413 3.43033C22.098 3.2936 22.1271 3.14706 22.1271 2.99906C22.1271 2.85107 22.098 2.70452 22.0413 2.5678C21.9847 2.43107 21.9017 2.30683 21.797 2.20219C21.6924 2.09754 21.5682 2.01453 21.4314 1.9579C21.2947 1.90126 21.1482 1.87211 21.0002 1.87211C20.8522 1.87211 20.7056 1.90126 20.5689 1.9579C20.4322 2.01453 20.3079 2.09754 20.2033 2.20219L18.3742 4.03125V2.25C18.3742 1.95163 18.2557 1.66548 18.0447 1.4545C17.8337 1.24353 17.5476 1.125 17.2492 1.125C16.9509 1.125 16.6647 1.24353 16.4537 1.4545C16.2428 1.66548 16.1242 1.95163 16.1242 2.25V4.6875C14.9449 4.15572 13.6318 3.99531 12.3591 4.22756C11.0865 4.45982 9.91466 5.07375 8.99923 5.98781C5.19767 9.72 2.35986 18.4688 2.04111 19.4784C1.9122 19.7639 1.85688 20.0772 1.8802 20.3896C1.90353 20.702 2.00475 21.0036 2.17462 21.2668C2.3445 21.53 2.57761 21.7464 2.85267 21.8963C3.12773 22.0463 3.43597 22.1249 3.74923 22.125C4.01563 22.1245 4.27891 22.0677 4.52173 21.9581C5.23798 21.7313 9.84579 20.2387 13.7945 18.0375L13.8452 18.0094C15.4483 17.1122 16.9389 16.0978 18.0114 15.0094C18.9274 14.0932 19.5425 12.9197 19.7748 11.6451C20.0072 10.3705 19.8456 9.05544 19.3117 7.875H21.7492C22.0476 7.875 22.3337 7.75647 22.5447 7.5455C22.7557 7.33452 22.8742 7.04837 22.8742 6.75C22.8742 6.45163 22.7557 6.16548 22.5447 5.9545C22.3337 5.74353 22.0476 5.625 21.7492 5.625ZM16.4158 13.4175L16.4074 13.4259C15.647 14.2022 14.6158 14.9447 13.4702 15.6309L11.2942 13.455C11.0829 13.2437 10.7962 13.1249 10.4974 13.1249C10.1985 13.1249 9.91183 13.2437 9.70048 13.455C9.48914 13.6663 9.37041 13.953 9.37041 14.2519C9.37041 14.5508 9.48914 14.8374 9.70048 15.0488L11.4086 16.7569C8.56892 18.1791 5.58392 19.2337 4.35298 19.6462C4.98767 17.7506 7.14579 11.6962 9.82236 8.42062L12.7005 11.2987C12.9118 11.5101 13.1985 11.6288 13.4974 11.6288C13.7962 11.6288 14.0829 11.5101 14.2942 11.2987C14.5056 11.0874 14.6243 10.8008 14.6243 10.5019C14.6243 10.203 14.5056 9.91634 14.2942 9.705L11.4874 6.89813C12.3568 6.41151 13.373 6.25604 14.3482 6.46045C15.3234 6.66486 16.1916 7.21534 16.7925 8.01016C17.3934 8.80498 17.6862 9.79042 17.617 10.7844C17.5477 11.7784 17.1211 12.7137 16.4158 13.4175Z" fill="white"/>
</svg>
