<svg width="24" height="24" viewBox="0 0 24 24" fill="#FFFFFF" xmlns="http://www.w3.org/2000/svg">
<path d="M18.6288 5.37092C17.7596 4.49411 16.7259 3.79761 15.5868 3.32141C14.4477 2.8452 13.2258 2.59867 11.9912 2.59597C10.7566 2.59327 9.53367 2.83444 8.39253 3.30565C7.25139 3.77686 6.21457 4.46883 5.34158 5.34182C4.46858 6.21481 3.77662 7.25164 3.30541 8.39277C2.8342 9.53391 2.59302 10.7569 2.59573 11.9915C2.59843 13.2261 2.84496 14.448 3.32116 15.587C3.79737 16.7261 4.49387 17.7599 5.37067 18.629C6.23983 19.5058 7.27362 20.2023 8.41268 20.6786C9.55174 21.1548 10.7736 21.4013 12.0082 21.404C13.2428 21.4067 14.4658 21.1655 15.6069 20.6943C16.7481 20.2231 17.7849 19.5311 18.6579 18.6581C19.5309 17.7851 20.2228 16.7483 20.6941 15.6072C21.1653 14.466 21.4064 13.2431 21.4037 12.0085C21.401 10.7739 21.1545 9.55199 20.6783 8.41292C20.2021 7.27386 19.5056 6.24008 18.6288 5.37092ZM9.8163 12.375H14.1832L15.8032 15.8859C15.5089 15.6699 15.1727 15.5176 14.8162 15.4388C14.4597 15.36 14.0907 15.3565 13.7328 15.4284C13.3749 15.5003 13.0358 15.6461 12.7374 15.8564C12.439 16.0668 12.1878 16.337 11.9997 16.65C11.8117 16.337 11.5604 16.0668 11.262 15.8564C10.9636 15.6461 10.6246 15.5003 10.2667 15.4284C9.90873 15.3565 9.53973 15.36 9.18323 15.4388C8.82674 15.5176 8.4906 15.6699 8.1963 15.8859L9.8163 12.375ZM10.1632 11.625L11.9997 7.64529L13.8363 11.625H10.1632ZM12.3747 18C12.3747 17.5027 12.5723 17.0258 12.9239 16.6742C13.2755 16.3225 13.7525 16.125 14.2497 16.125C14.747 16.125 15.2239 16.3225 15.5756 16.6742C15.9272 17.0258 16.1247 17.5027 16.1247 18V19.5778C14.971 20.207 13.6878 20.5621 12.3747 20.6156V18ZM7.87473 18C7.87473 17.5027 8.07228 17.0258 8.42391 16.6742C8.77554 16.3225 9.25245 16.125 9.74973 16.125C10.247 16.125 10.7239 16.3225 11.0756 16.6742C11.4272 17.0258 11.6247 17.5027 11.6247 18V20.6156C10.3116 20.5621 9.0285 20.207 7.87473 19.5778V18ZM18.0982 18.0984C17.7224 18.4743 17.3129 18.8148 16.8747 19.1156V16.5C16.8745 16.4456 16.8627 16.3919 16.84 16.3425L12.34 6.59248C12.31 6.52754 12.262 6.47255 12.2017 6.43401C12.1414 6.39548 12.0713 6.375 11.9997 6.375C11.9282 6.375 11.8581 6.39548 11.7978 6.43401C11.7375 6.47255 11.6895 6.52754 11.6594 6.59248L7.15942 16.3425C7.13677 16.3919 7.12494 16.4456 7.12473 16.5V19.1156C6.68821 18.8146 6.28025 18.4741 5.90599 18.0984C4.69966 16.8922 3.8781 15.3554 3.54522 13.6823C3.21234 12.0092 3.38309 10.2749 4.03586 8.69885C4.68864 7.12278 5.79413 5.77568 7.21252 4.82791C8.63092 3.88014 10.2985 3.37426 12.0044 3.37426C13.7103 3.37426 15.3779 3.88014 16.7963 4.82791C18.2147 5.77568 19.3202 7.12278 19.973 8.69885C20.6258 10.2749 20.7965 12.0092 20.4636 13.6823C20.1307 15.3554 19.3092 16.8922 18.1029 18.0984H18.0982Z" fill="white"/>
</svg>
