<svg width="24" height="24" viewBox="0 0 24 24" fill="#FFFFFF" xmlns="http://www.w3.org/2000/svg">
<path d="M20.25 7.125H12.1247L9.42469 5.1C9.2298 4.95425 8.99305 4.87534 8.74969 4.875H3.75C3.45163 4.875 3.16548 4.99353 2.9545 5.2045C2.74353 5.41548 2.625 5.70163 2.625 6V18.75C2.625 19.0484 2.74353 19.3345 2.9545 19.5455C3.16548 19.7565 3.45163 19.875 3.75 19.875H20.3334C20.6096 19.8748 20.8744 19.7649 21.0697 19.5697C21.2649 19.3744 21.3748 19.1096 21.375 18.8334V8.25C21.375 7.95163 21.2565 7.66548 21.0455 7.4545C20.8345 7.24353 20.5484 7.125 20.25 7.125ZM20.625 18.8334C20.6248 18.9107 20.594 18.9847 20.5393 19.0393C20.4847 19.094 20.4107 19.1248 20.3334 19.125H3.75C3.65054 19.125 3.55516 19.0855 3.48484 19.0152C3.41451 18.9448 3.375 18.8495 3.375 18.75V6C3.375 5.90054 3.41451 5.80516 3.48484 5.73484C3.55516 5.66451 3.65054 5.625 3.75 5.625H8.74969C8.83083 5.625 8.90978 5.65132 8.97469 5.7L11.775 7.8C11.8399 7.84868 11.9189 7.875 12 7.875H20.25C20.3495 7.875 20.4448 7.91451 20.5152 7.98483C20.5855 8.05516 20.625 8.15054 20.625 8.25V18.8334ZM14.625 13.5C14.625 13.5995 14.5855 13.6948 14.5152 13.7652C14.4448 13.8355 14.3495 13.875 14.25 13.875H12.375V15.75C12.375 15.8495 12.3355 15.9448 12.2652 16.0152C12.1948 16.0855 12.0995 16.125 12 16.125C11.9005 16.125 11.8052 16.0855 11.7348 16.0152C11.6645 15.9448 11.625 15.8495 11.625 15.75V13.875H9.75C9.65054 13.875 9.55516 13.8355 9.48483 13.7652C9.41451 13.6948 9.375 13.5995 9.375 13.5C9.375 13.4005 9.41451 13.3052 9.48483 13.2348C9.55516 13.1645 9.65054 13.125 9.75 13.125H11.625V11.25C11.625 11.1505 11.6645 11.0552 11.7348 10.9848C11.8052 10.9145 11.9005 10.875 12 10.875C12.0995 10.875 12.1948 10.9145 12.2652 10.9848C12.3355 11.0552 12.375 11.1505 12.375 11.25V13.125H14.25C14.3495 13.125 14.4448 13.1645 14.5152 13.2348C14.5855 13.3052 14.625 13.4005 14.625 13.5Z" fill="white"/>
</svg>
