<svg width="24" height="24" viewBox="0 0 24 24" fill="#FFFFFF" xmlns="http://www.w3.org/2000/svg">
<path d="M21.797 18.0459L18.797 21.0459C18.6924 21.1508 18.5682 21.234 18.4315 21.2908C18.2948 21.3476 18.1481 21.3768 18.0001 21.3768C17.852 21.3768 17.7054 21.3476 17.5687 21.2908C17.4319 21.234 17.3077 21.1508 17.2032 21.0459L14.2032 18.0459C13.9919 17.8346 13.8731 17.5479 13.8731 17.2491C13.8731 16.9502 13.9919 16.6635 14.2032 16.4522C14.4145 16.2408 14.7012 16.1221 15.0001 16.1221C15.299 16.1221 15.5856 16.2408 15.797 16.4522L16.876 17.5312V13.2188L12.001 8.34375L7.12601 13.2188V17.5312L8.20508 16.4512C8.41642 16.2399 8.70307 16.1212 9.00195 16.1212C9.30084 16.1212 9.58748 16.2399 9.79883 16.4512C10.0102 16.6626 10.1289 16.9492 10.1289 17.2481C10.1289 17.547 10.0102 17.8337 9.79883 18.045L6.79883 21.045C6.69431 21.1499 6.57012 21.2331 6.43337 21.2899C6.29663 21.3467 6.15002 21.3759 6.00195 21.3759C5.85389 21.3759 5.70728 21.3467 5.57053 21.2899C5.43378 21.2331 5.30959 21.1499 5.20508 21.045L2.20508 18.045C1.99373 17.8337 1.875 17.547 1.875 17.2481C1.875 16.9492 1.99373 16.6626 2.20508 16.4512C2.41642 16.2399 2.70307 16.1212 3.00195 16.1212C3.30084 16.1212 3.58748 16.2399 3.79883 16.4512L4.87601 17.5312V12.75C4.8759 12.6022 4.9049 12.4559 4.96136 12.3193C5.01782 12.1827 5.10064 12.0586 5.20508 11.9541L10.876 6.28125V2.25C10.876 1.95163 10.9945 1.66548 11.2055 1.4545C11.4165 1.24353 11.7026 1.125 12.001 1.125C12.2994 1.125 12.5855 1.24353 12.7965 1.4545C13.0075 1.66548 13.126 1.95163 13.126 2.25V6.28125L18.797 11.9513C18.9017 12.0561 18.9847 12.1807 19.0412 12.3178C19.0977 12.4549 19.1265 12.6017 19.126 12.75V17.5312L20.2051 16.4512C20.3097 16.3466 20.434 16.2636 20.5707 16.207C20.7074 16.1503 20.854 16.1212 21.002 16.1212C21.1499 16.1212 21.2965 16.1503 21.4332 16.207C21.5699 16.2636 21.6942 16.3466 21.7988 16.4512C21.9035 16.5559 21.9865 16.6801 22.0431 16.8169C22.0998 16.9536 22.1289 17.1001 22.1289 17.2481C22.1289 17.3961 22.0998 17.5427 22.0431 17.6794C21.9865 17.8161 21.9035 17.9404 21.7988 18.045L21.797 18.0459Z" fill="white"/>
</svg>
